<mxfile host="app.diagrams.net" agent="Mozilla/5.0 (Windows NT 10.0; Win64; x64; rv:133.0) Gecko/20100101 Firefox/133.0" version="25.0.3">
  <diagram name="Page-1" id="GQIarkOcN_hSwBKrH8tl">
    <mxGraphModel dx="1687" dy="920" grid="1" gridSize="10" guides="1" tooltips="1" connect="1" arrows="1" fold="1" page="1" pageScale="1" pageWidth="850" pageHeight="1100" math="0" shadow="0">
      <root>
        <mxCell id="0" />
        <mxCell id="1" parent="0" />
        <mxCell id="Mir2raS9aSC8Top5QSpR-1" value="Start" style="ellipse;whiteSpace=wrap;html=1;" vertex="1" parent="1">
          <mxGeometry x="30" y="30" width="80" height="50" as="geometry" />
        </mxCell>
        <mxCell id="Mir2raS9aSC8Top5QSpR-3" value="" style="endArrow=classic;html=1;rounded=0;exitX=0.5;exitY=1;exitDx=0;exitDy=0;" edge="1" parent="1" source="Mir2raS9aSC8Top5QSpR-1">
          <mxGeometry width="50" height="50" relative="1" as="geometry">
            <mxPoint x="50" y="130" as="sourcePoint" />
            <mxPoint x="70" y="120" as="targetPoint" />
          </mxGeometry>
        </mxCell>
        <mxCell id="Mir2raS9aSC8Top5QSpR-4" value="P1 Bet" style="shape=parallelogram;perimeter=parallelogramPerimeter;whiteSpace=wrap;html=1;fixedSize=1;" vertex="1" parent="1">
          <mxGeometry x="15" y="120" width="105" height="40" as="geometry" />
        </mxCell>
        <mxCell id="Mir2raS9aSC8Top5QSpR-10" value="" style="edgeStyle=orthogonalEdgeStyle;rounded=0;orthogonalLoop=1;jettySize=auto;html=1;" edge="1" parent="1" source="Mir2raS9aSC8Top5QSpR-5" target="Mir2raS9aSC8Top5QSpR-9">
          <mxGeometry relative="1" as="geometry" />
        </mxCell>
        <mxCell id="Mir2raS9aSC8Top5QSpR-17" style="edgeStyle=orthogonalEdgeStyle;rounded=0;orthogonalLoop=1;jettySize=auto;html=1;entryX=0;entryY=0.5;entryDx=0;entryDy=0;" edge="1" parent="1" source="Mir2raS9aSC8Top5QSpR-5" target="Mir2raS9aSC8Top5QSpR-16">
          <mxGeometry relative="1" as="geometry" />
        </mxCell>
        <mxCell id="Mir2raS9aSC8Top5QSpR-5" value="Bet?" style="rhombus;whiteSpace=wrap;html=1;" vertex="1" parent="1">
          <mxGeometry x="27.5" y="200" width="80" height="80" as="geometry" />
        </mxCell>
        <mxCell id="Mir2raS9aSC8Top5QSpR-6" value="" style="endArrow=classic;html=1;rounded=0;exitX=0.5;exitY=1;exitDx=0;exitDy=0;" edge="1" parent="1" source="Mir2raS9aSC8Top5QSpR-4">
          <mxGeometry width="50" height="50" relative="1" as="geometry">
            <mxPoint x="140" y="150" as="sourcePoint" />
            <mxPoint x="68" y="200" as="targetPoint" />
          </mxGeometry>
        </mxCell>
        <mxCell id="Mir2raS9aSC8Top5QSpR-19" style="edgeStyle=orthogonalEdgeStyle;rounded=0;orthogonalLoop=1;jettySize=auto;html=1;" edge="1" parent="1" source="Mir2raS9aSC8Top5QSpR-9" target="Mir2raS9aSC8Top5QSpR-12">
          <mxGeometry relative="1" as="geometry" />
        </mxCell>
        <mxCell id="Mir2raS9aSC8Top5QSpR-9" value="P1 out" style="shape=parallelogram;perimeter=parallelogramPerimeter;whiteSpace=wrap;html=1;fixedSize=1;" vertex="1" parent="1">
          <mxGeometry x="16.25" y="318" width="102.5" height="42" as="geometry" />
        </mxCell>
        <mxCell id="Mir2raS9aSC8Top5QSpR-13" value="Yes" style="text;html=1;align=center;verticalAlign=middle;resizable=0;points=[];autosize=1;strokeColor=none;fillColor=none;" vertex="1" parent="1">
          <mxGeometry x="100" y="198" width="40" height="30" as="geometry" />
        </mxCell>
        <mxCell id="Mir2raS9aSC8Top5QSpR-14" value="No" style="text;html=1;align=center;verticalAlign=middle;resizable=0;points=[];autosize=1;strokeColor=none;fillColor=none;" vertex="1" parent="1">
          <mxGeometry x="10" y="288" width="40" height="30" as="geometry" />
        </mxCell>
        <mxCell id="Mir2raS9aSC8Top5QSpR-33" style="edgeStyle=orthogonalEdgeStyle;rounded=0;orthogonalLoop=1;jettySize=auto;html=1;entryX=0.5;entryY=0;entryDx=0;entryDy=0;" edge="1" parent="1" source="Mir2raS9aSC8Top5QSpR-12" target="Mir2raS9aSC8Top5QSpR-23">
          <mxGeometry relative="1" as="geometry" />
        </mxCell>
        <mxCell id="Mir2raS9aSC8Top5QSpR-12" value="P2 Bet" style="shape=parallelogram;perimeter=parallelogramPerimeter;whiteSpace=wrap;html=1;fixedSize=1;" vertex="1" parent="1">
          <mxGeometry x="206.25" y="320" width="105" height="40" as="geometry" />
        </mxCell>
        <mxCell id="Mir2raS9aSC8Top5QSpR-18" style="edgeStyle=orthogonalEdgeStyle;rounded=0;orthogonalLoop=1;jettySize=auto;html=1;entryX=0.5;entryY=0;entryDx=0;entryDy=0;" edge="1" parent="1" source="Mir2raS9aSC8Top5QSpR-16" target="Mir2raS9aSC8Top5QSpR-12">
          <mxGeometry relative="1" as="geometry" />
        </mxCell>
        <mxCell id="Mir2raS9aSC8Top5QSpR-20" style="edgeStyle=orthogonalEdgeStyle;rounded=0;orthogonalLoop=1;jettySize=auto;html=1;entryX=0.5;entryY=0;entryDx=0;entryDy=0;" edge="1" parent="1" source="Mir2raS9aSC8Top5QSpR-16" target="Mir2raS9aSC8Top5QSpR-12">
          <mxGeometry relative="1" as="geometry" />
        </mxCell>
        <mxCell id="Mir2raS9aSC8Top5QSpR-16" value="Check if valid" style="rounded=0;whiteSpace=wrap;html=1;" vertex="1" parent="1">
          <mxGeometry x="218.75" y="217" width="80" height="50" as="geometry" />
        </mxCell>
        <mxCell id="Mir2raS9aSC8Top5QSpR-21" value="" style="edgeStyle=orthogonalEdgeStyle;rounded=0;orthogonalLoop=1;jettySize=auto;html=1;" edge="1" parent="1" source="Mir2raS9aSC8Top5QSpR-23" target="Mir2raS9aSC8Top5QSpR-25">
          <mxGeometry relative="1" as="geometry" />
        </mxCell>
        <mxCell id="Mir2raS9aSC8Top5QSpR-22" style="edgeStyle=orthogonalEdgeStyle;rounded=0;orthogonalLoop=1;jettySize=auto;html=1;entryX=0;entryY=0.5;entryDx=0;entryDy=0;" edge="1" parent="1" source="Mir2raS9aSC8Top5QSpR-23" target="Mir2raS9aSC8Top5QSpR-31">
          <mxGeometry relative="1" as="geometry" />
        </mxCell>
        <mxCell id="Mir2raS9aSC8Top5QSpR-23" value="Bet?" style="rhombus;whiteSpace=wrap;html=1;" vertex="1" parent="1">
          <mxGeometry x="217.5" y="412" width="80" height="80" as="geometry" />
        </mxCell>
        <mxCell id="Mir2raS9aSC8Top5QSpR-24" style="edgeStyle=orthogonalEdgeStyle;rounded=0;orthogonalLoop=1;jettySize=auto;html=1;" edge="1" parent="1" source="Mir2raS9aSC8Top5QSpR-25" target="Mir2raS9aSC8Top5QSpR-28">
          <mxGeometry relative="1" as="geometry" />
        </mxCell>
        <mxCell id="Mir2raS9aSC8Top5QSpR-25" value="P2 out" style="shape=parallelogram;perimeter=parallelogramPerimeter;whiteSpace=wrap;html=1;fixedSize=1;" vertex="1" parent="1">
          <mxGeometry x="206.25" y="530" width="102.5" height="42" as="geometry" />
        </mxCell>
        <mxCell id="Mir2raS9aSC8Top5QSpR-26" value="Yes" style="text;html=1;align=center;verticalAlign=middle;resizable=0;points=[];autosize=1;strokeColor=none;fillColor=none;" vertex="1" parent="1">
          <mxGeometry x="290" y="410" width="40" height="30" as="geometry" />
        </mxCell>
        <mxCell id="Mir2raS9aSC8Top5QSpR-27" value="No" style="text;html=1;align=center;verticalAlign=middle;resizable=0;points=[];autosize=1;strokeColor=none;fillColor=none;" vertex="1" parent="1">
          <mxGeometry x="200" y="500" width="40" height="30" as="geometry" />
        </mxCell>
        <mxCell id="Mir2raS9aSC8Top5QSpR-28" value="P3 Bet" style="shape=parallelogram;perimeter=parallelogramPerimeter;whiteSpace=wrap;html=1;fixedSize=1;" vertex="1" parent="1">
          <mxGeometry x="390" y="530" width="105" height="40" as="geometry" />
        </mxCell>
        <mxCell id="Mir2raS9aSC8Top5QSpR-29" style="edgeStyle=orthogonalEdgeStyle;rounded=0;orthogonalLoop=1;jettySize=auto;html=1;entryX=0.5;entryY=0;entryDx=0;entryDy=0;" edge="1" parent="1" source="Mir2raS9aSC8Top5QSpR-31" target="Mir2raS9aSC8Top5QSpR-28">
          <mxGeometry relative="1" as="geometry" />
        </mxCell>
        <mxCell id="Mir2raS9aSC8Top5QSpR-30" style="edgeStyle=orthogonalEdgeStyle;rounded=0;orthogonalLoop=1;jettySize=auto;html=1;entryX=0.5;entryY=0;entryDx=0;entryDy=0;" edge="1" parent="1" source="Mir2raS9aSC8Top5QSpR-31" target="Mir2raS9aSC8Top5QSpR-28">
          <mxGeometry relative="1" as="geometry" />
        </mxCell>
        <mxCell id="Mir2raS9aSC8Top5QSpR-31" value="Check if valid" style="rounded=0;whiteSpace=wrap;html=1;" vertex="1" parent="1">
          <mxGeometry x="402.5" y="427" width="80" height="50" as="geometry" />
        </mxCell>
      </root>
    </mxGraphModel>
  </diagram>
</mxfile>
